<svg width="16" height="16" viewBox="0 0 16 16" fill="none" xmlns="http://www.w3.org/2000/svg">
<mask id="mask0_117_183" style="mask-type:alpha" maskUnits="userSpaceOnUse" x="0" y="0" width="16" height="16">
<rect width="16" height="16" fill="#D9D9D9"/>
</mask>
<g mask="url(#mask0_117_183)">
<path d="M8.00001 13.5C7.6389 13.5 7.33196 13.3736 7.07918 13.1208C6.8264 12.8681 6.70001 12.5611 6.70001 12.2C6.70001 11.8389 6.8264 11.5319 7.07918 11.2792C7.33196 11.0264 7.6389 10.9 8.00001 10.9C8.36112 10.9 8.66807 11.0264 8.92085 11.2792C9.17362 11.5319 9.30001 11.8389 9.30001 12.2C9.30001 12.5611 9.17362 12.8681 8.92085 13.1208C8.66807 13.3736 8.36112 13.5 8.00001 13.5ZM8.00001 9.3C7.6389 9.3 7.33196 9.17361 7.07918 8.92083C6.8264 8.66806 6.70001 8.36111 6.70001 8C6.70001 7.63889 6.8264 7.33194 7.07918 7.07917C7.33196 6.82639 7.6389 6.7 8.00001 6.7C8.36112 6.7 8.66807 6.82639 8.92085 7.07917C9.17362 7.33194 9.30001 7.63889 9.30001 8C9.30001 8.36111 9.17362 8.66806 8.92085 8.92083C8.66807 9.17361 8.36112 9.3 8.00001 9.3ZM8.00001 5.1C7.6389 5.1 7.33196 4.97361 7.07918 4.72083C6.8264 4.46806 6.70001 4.16111 6.70001 3.8C6.70001 3.43889 6.8264 3.13194 7.07918 2.87917C7.33196 2.62639 7.6389 2.5 8.00001 2.5C8.36112 2.5 8.66807 2.62639 8.92085 2.87917C9.17362 3.13194 9.30001 3.43889 9.30001 3.8C9.30001 4.16111 9.17362 4.46806 8.92085 4.72083C8.66807 4.97361 8.36112 5.1 8.00001 5.1Z" fill="white"/>
</g>
</svg>
